<?xml version="1.0" encoding="UTF-8"?>
<!DOCTYPE svg PUBLIC "-//W3C//DTD SVG 1.1//EN" "http://www.w3.org/Graphics/SVG/1.1/DTD/svg11.dtd">
<!-- Creator: CorelDRAW X7 -->
<svg xmlns="http://www.w3.org/2000/svg" xml:space="preserve" width="16.5354in" height="11.6929in" version="1.1" style="shape-rendering:geometricPrecision; text-rendering:geometricPrecision; image-rendering:optimizeQuality; fill-rule:evenodd; clip-rule:evenodd"
viewBox="0 0 16535 11693"
 xmlns:xlink="http://www.w3.org/1999/xlink">
 <defs>
  <style type="text/css">
   <![CDATA[
    .fil1 {fill:black}
    .fil0 {fill:white}
    .fil2 {fill:black;fill-rule:nonzero}
   ]]>
  </style>
 </defs>
 <g id="Layer_x0020_1">
  <metadata id="CorelCorpID_0Corel-Layer"/>
  <rect class="fil0" x="6811" y="3296" width="3427" height="862"/>
  <g id="_159466181744">
   <path class="fil1" d="M7242 3296c238,0 431,193 431,431 0,238 -193,431 -431,431 -238,0 -431,-193 -431,-431 0,-238 193,-431 431,-431zm-58 547l-59 70 0 43 234 0 0 -43 -140 -166 -147 -175 -7 -20 0 -83 0 -30 30 0 294 0 30 0 0 30 0 83 -7 20 -71 84c-3,17 -17,30 -35,30 -19,0 -35,-16 -35,-35 0,-15 10,-28 24,-33l64 -76 0 -43 -234 0 0 43 140 166 147 175 7 19 0 84 0 30 -30 0 -294 0 -30 0 0 -30 0 -84 7 -19 67 -79c2,-17 17,-29 34,-29 20,0 35,15 35,34 0,16 -10,29 -24,34z"/>
   <path class="fil2" d="M9527 3624c-20,-38 -49,-68 -83,-89 -35,-21 -75,-33 -117,-33 -54,0 -100,17 -137,46 -38,30 -67,73 -81,123l0 2c0,5 2,9 5,12l0 0c3,3 7,5 12,5l402 0c25,0 48,11 65,27l0 0c16,17 27,40 27,65 0,6 -1,11 -2,17 -1,4 -2,8 -3,12 -19,64 -57,118 -109,157 -50,37 -112,60 -179,60 -56,0 -109,-16 -156,-44 -46,-28 -85,-68 -110,-118l66 -34c20,37 48,67 83,88 34,21 75,33 117,33 51,0 97,-17 135,-45 38,-29 67,-70 81,-118 1,-2 1,-3 2,-5 0,-1 0,-2 0,-3 0,-4 -2,-9 -5,-12l0 0c-3,-3 -8,-5 -12,-5l-402 0c-25,0 -48,-10 -65,-27l0 0 0 0c-17,-17 -27,-40 -27,-65 0,-2 0,-4 0,-8l0 0c0,-4 1,-8 2,-12 19,-67 57,-124 108,-164 50,-39 112,-61 183,-61 56,0 109,15 155,43 47,28 85,69 111,118l-66 35zm-804 -196c83,0 158,33 212,87 55,55 88,130 88,213l0 257 -75 0 0 -59c-4,5 -8,9 -13,14 -54,54 -129,88 -212,88 -83,0 -158,-34 -212,-88 -54,-54 -88,-130 -88,-212 0,-83 34,-158 88,-213 54,-54 129,-87 212,-87zm159 140c-40,-40 -97,-66 -159,-66 -62,0 -118,26 -159,66 -41,41 -66,97 -66,160 0,62 25,118 66,159 41,41 97,66 159,66 62,0 119,-25 159,-66 41,-41 66,-97 66,-159 0,-63 -25,-119 -66,-160zm1056 -140c83,0 158,33 212,87 54,55 88,130 88,213 0,82 -34,158 -88,212 -54,54 -129,88 -212,88 -83,0 -158,-34 -212,-88 -5,-5 -9,-9 -13,-14l0 233 -75 0 0 -431c0,-83 33,-158 88,-213 54,-54 129,-87 212,-87zm159 140c-41,-40 -97,-66 -159,-66 -62,0 -119,26 -159,66 -41,41 -66,97 -66,160 0,62 25,118 66,159 40,41 97,66 159,66 62,0 118,-25 159,-66 41,-41 66,-97 66,-159 0,-63 -25,-119 -66,-160zm-1985 -140c83,0 158,33 212,87 5,5 9,10 13,14l0 -233 75 0 0 432 0 0c0,82 -33,158 -88,212 -54,54 -129,88 -212,88 -83,0 -158,-34 -212,-88 -54,-54 -88,-130 -88,-212 0,-83 34,-158 88,-213 54,-54 129,-87 212,-87zm159 140c-40,-40 -97,-66 -159,-66 -62,0 -118,26 -159,66 -41,41 -66,97 -66,160 0,62 25,118 66,159 41,41 97,66 159,66 62,0 119,-25 159,-66 41,-41 66,-97 66,-159 0,-63 -25,-119 -66,-160z"/>
  </g>
 </g>
</svg>
